<svg width="16" height="16" viewBox="0 0 16 16" fill="none" xmlns="http://www.w3.org/2000/svg">
<path d="M10.0002 14.6667V12C10.0929 11.1649 9.85347 10.3268 9.33352 9.66668C11.3335 9.66668 13.3335 8.33334 13.3335 6.00001C13.3869 5.16668 13.1535 4.34668 12.6669 3.66668C12.8535 2.90001 12.8535 2.10001 12.6669 1.33334C12.6669 1.33334 12.0002 1.33334 10.6669 2.33334C8.90685 2.00001 7.09352 2.00001 5.33352 2.33334C4.00019 1.33334 3.33352 1.33334 3.33352 1.33334C3.13352 2.10001 3.13352 2.90001 3.33352 3.66668C2.8481 4.34393 2.6125 5.16853 2.66685 6.00001C2.66685 8.33334 4.66685 9.66668 6.66685 9.66668C6.40685 9.99334 6.21352 10.3667 6.10019 10.7667C5.98685 11.1667 5.95352 11.5867 6.00019 12V14.6667" stroke="#334155" stroke-width="1.33333" stroke-linecap="round" stroke-linejoin="round"/>
<path d="M5.99967 12C2.99301 13.3333 2.66634 10.6667 1.33301 10.6667" stroke="black" stroke-width="1.33333" stroke-linecap="round" stroke-linejoin="round"/>
</svg>
